PathFileType	4	(X/Y/Z)	 0.11m3min.trc
DataRate	CameraRate	NumFrames	NumMarkers	Units	OrigDataRate	OrigDataStartFrame	OrigNumFrames
200	200	9	35	m	200	126	1000
Frame#	Time	C7			LSH			RSH			MAN			RASI			LASI			HIPR			HIPL			RPSI			LPSI			COX			RTHI1			RTHI2			RTHI3			RTHI4			RSHA1			RSHA2			RSHA3			RSHA4			RHEEL			RMET5			RMET1			RTOE			LTHI1			LTHI2			LTHI3			LTHI4			LSHA1			LSHA2			LSHA3			LSHA4			LHEEL			LMET5			LMET1			LTOE			
		X1	Y1	Z1	X2	Y2	Z2	X3	Y3	Z3	X4	Y4	Z4	X5	Y5	Z5	X6	Y6	Z6	X7	Y7	Z7	X8	Y8	Z8	X9	Y9	Z9	X10	Y10	Z10	X11	Y11	Z11	X12	Y12	Z12	X13	Y13	Z13	X14	Y14	Z14	X15	Y15	Z15	X16	Y16	Z16	X17	Y17	Z17	X18	Y18	Z18	X19	Y19	Z19	X20	Y20	Z20	X21	Y21	Z21	X22	Y22	Z22	X23	Y23	Z23	X24	Y24	Z24	X25	Y25	Z25	X26	Y26	Z26	X27	Y27	Z27	X28	Y28	Z28	X29	Y29	Z29	X30	Y30	Z30	X31	Y31	Z31	X32	Y32	Z32	X33	Y33	Z33	X34	Y34	Z34	X35	Y35	Z35	
126	0.6300	-0.337821	1.696381	-0.526027	-0.280539	1.699910	-0.754706	-0.252975	1.692338	-0.320579	-0.181829	1.662644	-0.539888	-0.164553	1.178604	-0.416703	-0.171877	1.177272	-0.645516	-0.225370	1.264052	-0.371839	-0.229473	1.252101	-0.689036	-0.344453	1.227903	-0.470188	-0.346448	1.228402	-0.579308	-0.352430	1.231723	-0.521823	-0.265852	0.956844	-0.326349	-0.254416	0.899944	-0.312641	-0.190477	0.911860	-0.306930	-0.194819	0.971685	-0.320652	-0.328453	0.490627	-0.292999	-0.341584	0.449410	-0.296229	-0.282488	0.437492	-0.291798	-0.273551	0.476659	-0.292970	-0.402922	0.166320	-0.353961	-0.265065	0.040530	-0.294840	-0.226402	0.045520	-0.373233	-0.202825	0.031335	-0.368357	-0.243292	0.927390	-0.734233	-0.228637	0.868168	-0.742413	-0.164909	0.877980	-0.742281	-0.170552	0.937737	-0.734527	-0.334424	0.439226	-0.733782	-0.346179	0.400784	-0.729290	-0.285640	0.387822	-0.738559	-0.281610	0.431384	-0.742047	-0.418299	0.164247	-0.670039	-0.290085	0.032084	-0.733898	-0.239881	0.040233	-0.656625	-0.213259	0.027742	-0.662562	
127	0.6350	-0.337941	1.700296	-0.526099	-0.280615	1.704223	-0.754279	-0.253446	1.697065	-0.321004	-0.182123	1.667047	-0.539778	-0.164105	1.182377	-0.416663	-0.171370	1.181202	-0.645374	-0.224903	1.268227	-0.371811	-0.228849	1.256699	-0.688797	-0.343795	1.232551	-0.469993	-0.345912	1.233085	-0.579202	-0.351678	1.236555	-0.521666	-0.266271	0.960713	-0.326505	-0.255108	0.903714	-0.312995	-0.191083	0.915268	-0.307493	-0.195147	0.975166	-0.320999	-0.329334	0.493314	-0.293772	-0.342050	0.452024	-0.296759	-0.282698	0.440727	-0.292356	-0.274219	0.480016	-0.293578	-0.400722	0.169161	-0.353694	-0.263203	0.043185	-0.294931	-0.224897	0.047223	-0.372954	-0.201342	0.032498	-0.367657	-0.243724	0.931574	-0.734206	-0.229285	0.872286	-0.742276	-0.165511	0.881843	-0.741945	-0.170953	0.941630	-0.734274	-0.334723	0.442129	-0.733392	-0.345947	0.403516	-0.728999	-0.285369	0.391352	-0.739015	-0.281902	0.434967	-0.742310	-0.415097	0.167403	-0.671188	-0.288768	0.033250	-0.733914	-0.239065	0.040772	-0.656884	-0.212787	0.027954	-0.662995	
128	0.6400	-0.338030	1.703986	-0.526159	-0.280696	1.708231	-0.753862	-0.253916	1.701500	-0.321419	-0.182367	1.671172	-0.539662	-0.163716	1.185899	-0.416632	-0.170909	1.184866	-0.645241	-0.224523	1.272059	-0.371771	-0.228239	1.260939	-0.688572	-0.343215	1.236946	-0.469843	-0.345420	1.237516	-0.579133	-0.350990	1.241112	-0.521542	-0.266672	0.964345	-0.326670	-0.255755	0.907249	-0.313366	-0.191650	0.918469	-0.308105	-0.195463	0.978425	-0.321404	-0.330008	0.495780	-0.294419	-0.342331	0.454435	-0.297193	-0.282764	0.443712	-0.292984	-0.274710	0.483082	-0.294297	-0.398891	0.171684	-0.353565	-0.261245	0.046106	-0.294866	-0.223157	0.049304	-0.372576	-0.199511	0.034099	-0.366841	-0.244132	0.935475	-0.734173	-0.229894	0.876115	-0.742113	-0.166083	0.885428	-0.741549	-0.171327	0.945247	-0.733987	-0.334911	0.444828	-0.732973	-0.345625	0.406039	-0.728694	-0.285018	0.394645	-0.739396	-0.282088	0.438316	-0.742491	-0.412041	0.170382	-0.672313	-0.287222	0.034628	-0.733959	-0.238203	0.041413	-0.657128	-0.212188	0.028254	-0.663504	
129	0.6450	-0.338094	1.707441	-0.526207	-0.280771	1.711928	-0.753466	-0.254380	1.705632	-0.321814	-0.182567	1.675016	-0.539540	-0.163389	1.189175	-0.416613	-0.170500	1.188252	-0.645113	-0.224200	1.275565	-0.371726	-0.227624	1.264815	-0.688361	-0.342711	1.241070	-0.469736	-0.345002	1.241672	-0.579105	-0.350366	1.245400	-0.521463	-0.267053	0.967705	-0.326845	-0.256359	0.910531	-0.313787	-0.192192	0.921457	-0.308752	-0.195762	0.981467	-0.321865	-0.330499	0.498048	-0.294977	-0.342410	0.456646	-0.297547	-0.282718	0.446442	-0.293681	-0.275029	0.485864	-0.295085	-0.397419	0.173890	-0.353650	-0.259233	0.049249	-0.294661	-0.221193	0.051738	-0.372066	-0.197372	0.036189	-0.365909	-0.244521	0.939085	-0.734131	-0.230469	0.879656	-0.741924	-0.166627	0.888732	-0.741106	-0.171678	0.948590	-0.733675	-0.334974	0.447320	-0.732575	-0.345219	0.408366	-0.728402	-0.284587	0.397698	-0.739687	-0.282159	0.441418	-0.742595	-0.409213	0.173151	-0.673400	-0.285444	0.036235	-0.734056	-0.237268	0.042199	-0.657391	-0.211432	0.028685	-0.664112	
130	0.6500	-0.338135	1.710652	-0.526243	-0.280824	1.715317	-0.753102	-0.254833	1.709457	-0.322182	-0.182727	1.678575	-0.539412	-0.163121	1.192194	-0.416608	-0.170142	1.191361	-0.644992	-0.223910	1.278767	-0.371680	-0.227028	1.268279	-0.688202	-0.342284	1.244915	-0.469672	-0.344632	1.245530	-0.579116	-0.349823	1.249384	-0.521424	-0.267414	0.970816	-0.327050	-0.256905	0.913601	-0.314140	-0.192695	0.924245	-0.309431	-0.196050	0.984292	-0.322370	-0.330823	0.500162	-0.295449	-0.342360	0.458684	-0.297843	-0.282578	0.448937	-0.294399	-0.275203	0.488399	-0.295890	-0.396271	0.175762	-0.353976	-0.257213	0.052549	-0.294338	-0.219036	0.054478	-0.371429	-0.195003	0.038732	-0.364890	-0.244888	0.942399	-0.734082	-0.231012	0.882905	-0.741714	-0.167146	0.891758	-0.740626	-0.172007	0.951649	-0.733339	-0.334916	0.449587	-0.732204	-0.344727	0.410499	-0.728153	-0.284062	0.400497	-0.739881	-0.282095	0.444263	-0.742626	-0.406691	0.175681	-0.674428	-0.283466	0.038077	-0.734223	-0.236236	0.043164	-0.657705	-0.210495	0.029288	-0.664827	
131	0.6550	-0.338155	1.713605	-0.526267	-0.280844	1.718400	-0.752780	-0.255268	1.712964	-0.322516	-0.182851	1.681841	-0.539278	-0.162899	1.194967	-0.416603	-0.169833	1.194193	-0.644878	-0.223642	1.281673	-0.371627	-0.226445	1.271343	-0.688093	-0.341932	1.248479	-0.469649	-0.344309	1.249079	-0.579163	-0.349362	1.253052	-0.521422	-0.267747	0.973681	-0.327270	-0.257405	0.916440	-0.314500	-0.193160	0.926824	-0.310135	-0.196324	0.986899	-0.322910	-0.331014	0.502162	-0.295839	-0.342250	0.460579	-0.298132	-0.282393	0.451229	-0.295115	-0.275277	0.490701	-0.296696	-0.395364	0.177338	-0.354601	-0.255248	0.055927	-0.293931	-0.216747	0.057424	-0.370690	-0.192482	0.041639	-0.363839	-0.245230	0.945417	-0.734028	-0.231520	0.885863	-0.741482	-0.167637	0.894503	-0.740122	-0.172314	0.954420	-0.732988	-0.334718	0.451667	-0.731925	-0.344149	0.412462	-0.727973	-0.283441	0.403044	-0.739971	-0.281885	0.446847	-0.742585	-0.404525	0.177946	-0.675366	-0.281333	0.040146	-0.734484	-0.235076	0.044334	-0.658108	-0.209349	0.030138	-0.665647	
132	0.6600	-0.338160	1.716296	-0.526277	-0.280819	1.721180	-0.752506	-0.255673	1.716149	-0.322806	-0.182941	1.684818	-0.539139	-0.162717	1.197503	-0.416601	-0.169575	1.196753	-0.644774	-0.223396	1.284306	-0.371559	-0.225878	1.274028	-0.688032	-0.341649	1.251757	-0.469666	-0.344032	1.252312	-0.579247	-0.348983	1.256395	-0.521461	-0.268057	0.976317	-0.327514	-0.257850	0.919046	-0.314886	-0.193580	0.929208	-0.310854	-0.196578	0.989301	-0.323478	-0.331104	0.504052	-0.296220	-0.342090	0.462356	-0.298487	-0.282215	0.453338	-0.295845	-0.275300	0.492799	-0.297534	-0.394619	0.178665	-0.355527	-0.253375	0.059312	-0.293499	-0.214396	0.060467	-0.369891	-0.189915	0.044753	-0.362760	-0.245538	0.948142	-0.733970	-0.231989	0.888532	-0.741230	-0.168097	0.896967	-0.739598	-0.172593	0.956913	-0.732632	-0.334382	0.453566	-0.731761	-0.343502	0.414274	-0.727890	-0.282724	0.405350	-0.739953	-0.281515	0.449180	-0.742484	-0.402735	0.179934	-0.676160	-0.279132	0.042399	-0.734853	-0.233763	0.045725	-0.658626	-0.207975	0.031268	-0.666562	
133	0.6650	-0.338150	1.718724	-0.526273	-0.280747	1.723660	-0.752285	-0.256037	1.719013	-0.323042	-0.182998	1.687503	-0.538998	-0.162572	1.199818	-0.416600	-0.169369	1.199049	-0.644680	-0.223162	1.286666	-0.371478	-0.225334	1.276359	-0.688014	-0.341433	1.254739	-0.469717	-0.343811	1.255227	-0.579361	-0.348684	1.259423	-0.521542	-0.268337	0.978721	-0.327766	-0.258244	0.921435	-0.315265	-0.193953	0.931403	-0.311574	-0.196815	0.991510	-0.324068	-0.331145	0.505856	-0.296540	-0.341961	0.464063	-0.298903	-0.282080	0.455281	-0.296592	-0.275311	0.494758	-0.298315	-0.393973	0.179787	-0.356742	-0.251637	0.062616	-0.293088	-0.212053	0.063478	-0.369067	-0.187395	0.047921	-0.361660	-0.245805	0.950579	-0.733905	-0.232412	0.890918	-0.740959	-0.168509	0.899158	-0.739059	-0.172835	0.959129	-0.732263	-0.333921	0.455300	-0.731722	-0.342800	0.415949	-0.727916	-0.281931	0.407417	-0.739840	-0.280999	0.451262	-0.742332	-0.401324	0.181645	-0.676781	-0.276976	0.044762	-0.735327	-0.232230	0.047362	-0.659304	-0.206373	0.032715	-0.667581	
134	0.6700	-0.338127	1.720890	-0.526254	-0.280627	1.725847	-0.752121	-0.256356	1.721558	-0.323218	-0.183019	1.689896	-0.538856	-0.162459	1.201914	-0.416600	-0.169213	1.201100	-0.644603	-0.222945	1.288767	-0.371395	-0.224831	1.278367	-0.688034	-0.341282	1.257419	-0.469796	-0.343630	1.257824	-0.579499	-0.348463	1.262116	-0.521657	-0.268599	0.980932	-0.328059	-0.258585	0.923610	-0.315639	-0.194266	0.933416	-0.312287	-0.197034	0.993531	-0.324669	-0.331194	0.507587	-0.296847	-0.341939	0.465699	-0.299381	-0.282019	0.457087	-0.297348	-0.275352	0.496589	-0.299034	-0.393383	0.180742	-0.358180	-0.250073	0.065750	-0.292729	-0.209781	0.066386	-0.368261	-0.185004	0.050979	-0.360537	-0.246019	0.952734	-0.733831	-0.232775	0.893019	-0.740674	-0.168862	0.901085	-0.738514	-0.173036	0.961075	-0.731888	-0.333354	0.456882	-0.731820	-0.342062	0.417500	-0.728063	-0.281083	0.409273	-0.739647	-0.280353	0.453111	-0.742134	-0.400258	0.183079	-0.677197	-0.274917	0.047201	-0.735904	-0.230518	0.049214	-0.660127	-0.204560	0.034493	-0.668690	
